<svg xmlns="http://www.w3.org/2000/svg" viewBox="0 0 135.56 113.04" id="chinese-food"><g><g><path fill="none" stroke="#f7941d" stroke-linecap="round" stroke-linejoin="round" stroke-width="8" d="M104.82 30.79A10.73 10.73 0 0 1 120 29.67a11.05 11.05 0 0 1 1.12 15.4M62.13 23.46a10.63 10.63 0 0 1 21.21 1.08M44.82 45.07c1.59-4.26 0-10.34-4.26-14.76-5.43-5.63-27.33-13-27.33-13s6.6 22.15 12 27.78"></path><path fill="none" stroke="#f7941d" stroke-linecap="round" stroke-linejoin="round" stroke-width="8" d="M44.06 34.2c2.25 7.5 8.63 12.21 14.25 10.53s8.36-9.13 6.12-16.63S46.11 4 46.11 4s-4.3 22.71-2.05 30.2zM53.85 29.84l4.46 14.89"></path><path fill="none" stroke="#ed1c24" stroke-linecap="round" stroke-linejoin="round" stroke-width="8" d="m81.59 37.75 4.45 4.44M96.24 37.75l-4.45 4.44M67.78 45.07a21.26 21.26 0 1 1 42.52 0"></path><path fill="none" stroke="#f7941d" stroke-linecap="round" stroke-linejoin="round" stroke-width="8" d="M25.26 109.04h85.04"></path><path fill="none" stroke="#ed1c24" stroke-linecap="round" stroke-linejoin="round" stroke-width="8" d="M47.81 45.07 4 23.88"></path><path fill="none" stroke="#f7941d" stroke-linecap="round" stroke-linejoin="round" stroke-width="8" d="M21.65 45.14h109.91A63.78 63.78 0 1 1 4 45.14"></path></g></g></svg>